HIERARCHY
ROOT Hips
{
	OFFSET 0.00000 0.00000 0.00000
	CHANNELS 6 Xposition Yposition Zposition Zrotation Yrotation Xrotation 
	JOINT LHipJoint
	{
		OFFSET 0 0 0
		CHANNELS 3 Zrotation Yrotation Xrotation
		JOINT LeftHip
		{
			OFFSET 1.66553 -1.82942 0.76350
			CHANNELS 3 Zrotation Yrotation Xrotation
			JOINT LeftKnee
			{
				OFFSET 2.41740 -6.64177 0.00000
				CHANNELS 3 Zrotation Yrotation Xrotation
				JOINT LeftAnkle
				{
					OFFSET 2.71614 -7.46254 0.00000
					CHANNELS 3 Zrotation Yrotation Xrotation
					JOINT LeftToe
					{
						OFFSET 0.08005 -0.21993 1.82495
						CHANNELS 3 Zrotation Yrotation Xrotation
						End Site
						{
							OFFSET 0.00000 -0.00000 0.93441
						}
					}
				}
			}
		}
	}
	JOINT RHipJoint
	{
		OFFSET 0 0 0
		CHANNELS 3 Zrotation Yrotation Xrotation
		JOINT RightHip
		{
			OFFSET -1.63725 -1.82942 0.76350
			CHANNELS 3 Zrotation Yrotation Xrotation
			JOINT RightKnee
			{
				OFFSET -2.40538 -6.60872 0.00000
				CHANNELS 3 Zrotation Yrotation Xrotation
				JOINT RightAnkle
				{
					OFFSET -2.73312 -7.50919 0.00000
					CHANNELS 3 Zrotation Yrotation Xrotation
					JOINT RightToe
					{
						OFFSET -0.15567 -0.42769 1.93504
						CHANNELS 3 Zrotation Yrotation Xrotation
						End Site
						{
							OFFSET -0.00000 -0.00000 1.00100
						}
					}
				}
			}
		}
	}
	JOINT lowerback
	{
		OFFSET 0 0 0
		CHANNELS 3 Zrotation Yrotation Xrotation
		JOINT Chest
		{
			OFFSET 0.00326 2.30118 -0.13017
			CHANNELS 3 Zrotation Yrotation Xrotation
			JOINT Chest2
			{
				OFFSET 0.02887 2.30677 0.00834
				CHANNELS 3 Zrotation Yrotation Xrotation
				JOINT lowerneck
				{
					OFFSET 0 0 0
					CHANNELS 3 Zrotation Yrotation Xrotation
					JOINT Neck
					{
						OFFSET 0.12946 1.68326 0.00713
						CHANNELS 3 Zrotation Yrotation Xrotation
						JOINT Head
						{
							OFFSET -0.24364 1.67243 -0.16079
							CHANNELS 3 Zrotation Yrotation Xrotation
							End Site
							{
								OFFSET -0.09229 1.70819 -0.06383
							}
						}
					}
				}
				JOINT LeftCollar
				{
					OFFSET 0 0 0
					CHANNELS 3 Zrotation Yrotation Xrotation
					JOINT LeftShoulder
					{
						OFFSET 3.28104 0.69567 -0.00556
CHANNELS 3 Zrotation Xrotation Yrotation
						JOINT LeftElbow
						{
OFFSET 0 -5.707060 -0.000000
CHANNELS 3 Zrotation Xrotation Yrotation
							JOINT LeftWrist
							{
OFFSET 0 -3.332430 0.000000
CHANNELS 3 Zrotation Xrotation Yrotation
								JOINT lhand
								{
									OFFSET 0 0 0
CHANNELS 3 Zrotation Xrotation Yrotation
									JOINT LFingers
									{
OFFSET 0 -0.792690 0.000000
CHANNELS 3 Zrotation Xrotation Yrotation
										End Site
										{
OFFSET 0 -0.639090 0.000000
										}
									}
								}
								JOINT LThumb
								{
OFFSET 0 0.000000 0.000000
CHANNELS 3 Zrotation Xrotation Yrotation
									End Site
									{
OFFSET 0 -0.648840 0.648840
									}
								}
							}
						}
					}
				}
				JOINT RightCollar
				{
					OFFSET 0 0 0
					CHANNELS 3 Zrotation Yrotation Xrotation
					JOINT RightShoulder
					{
						OFFSET -3.40955 0.64424 0.14010
CHANNELS 3 Zrotation Xrotation Yrotation
						JOINT RightElbow
						{
OFFSET 0 -5.881760 -0.000000
CHANNELS 3 Zrotation Xrotation Yrotation
							JOINT RightWrist
							{
OFFSET 0 -3.281560 0.000000
CHANNELS 3 Zrotation Xrotation Yrotation
								JOINT rhand
								{
									OFFSET 0 0 0
CHANNELS 3 Zrotation Xrotation Yrotation
									JOINT RFingers
									{
OFFSET 0 -0.863130 0.000000
CHANNELS 3 Zrotation Xrotation Yrotation
										End Site
										{
OFFSET 0 -0.695870 0.000000
										}
									}
								}
								JOINT RThumb
								{
OFFSET 0 0.000000 0.000000
CHANNELS 3 Zrotation Xrotation Yrotation
									End Site
									{
OFFSET 0 -0.706500 0.706500
									}
								}
							}
						}
					}
				}
			}
		}
	}
}
MOTION
Frames: 9
Frame Time: 0.008333333333333333
23.805425 17.343740 -3.436064 -10.702073 -29.137237 59.607953 0.000000 0.000000 0.000000 42.861847 -17.982386 -62.529160 0.301792 3.531934 9.763485 -1.097637 25.746771 -29.180986 0.125284 -2.200841 -6.064427 0.000000 0.000000 0.000000 -23.627719 32.621348 -70.834104 -2.118658 -9.108960 26.136702 -0.478255 -1.410404 -13.651915 -1.103847 6.670204 -18.743914 -2.500954 2.174077 33.160663 -1.037887 1.546724 2.264994 -0.412402 0.738980 -14.643440 13.660579 13.226439 7.943956 -33.221830 13.041962 -36.232332 -16.294786 9.044766 -8.469323 0.000000 0.000000 0.000000 21.417868 28.046473 -7.311059 14.124027 -22.911649 2.876258 45.312069 -7.816501 -26.812727 0.000000 0.000000 0.000000 -7.125000 0.000000 0.000000 20.644507 64.546905 -9.970240 0.000000 0.000000 0.000000 -15.429571 26.719125 -28.741715 -5.984167 -10.235756 -0.536464 -41.510477 21.127959 -7.640653 0.000000 0.000000 0.000000 7.125000 0.000000 0.000000 -10.475780 19.904970 -6.389976
23.989636 17.404748 -3.375646 -7.871463 -31.999029 58.477595 0.000000 0.000000 0.000000 38.651447 -19.266068 -63.389221 0.265945 3.317411 9.163591 -0.722369 23.597790 -28.263774 0.166046 -2.624219 -7.234208 0.000000 0.000000 0.000000 -27.746989 31.611696 -70.741625 -2.134818 -9.141430 26.238743 -0.297177 -5.687383 -13.955689 -0.968362 6.264055 -17.552818 -1.819782 2.303340 34.121986 -0.724135 1.972710 2.186181 -0.641501 0.884356 -15.135799 13.726660 13.007563 7.447616 -34.793448 12.454922 -35.214111 -16.810280 8.905668 -7.969829 0.000000 0.000000 0.000000 21.519117 30.497161 -7.609688 13.621091 -22.190465 2.683346 47.467538 -7.179016 -26.539900 0.000000 0.000000 0.000000 -7.125000 0.000000 0.000000 24.069947 64.895589 -11.904347 0.000000 0.000000 0.000000 -15.936081 26.791353 -29.042964 -5.713606 -9.783679 -0.489370 -41.541743 22.162170 -7.287970 0.000000 0.000000 0.000000 7.125000 0.000000 0.000000 -10.557560 20.358174 -6.332227
24.200964 17.407986 -3.309013 -5.972767 -35.016704 57.806022 0.000000 0.000000 0.000000 32.476170 -18.043816 -65.951503 0.415092 4.135287 11.457666 -0.784460 21.828519 -24.587105 0.674829 -5.251415 -14.627239 0.000000 0.000000 0.000000 -28.815744 29.725664 -72.414612 -2.539377 -9.908767 28.682205 -0.099039 -8.410910 -13.751862 -0.758778 5.553181 -15.495749 -1.058045 2.535716 34.548099 -0.321708 2.597308 2.262928 -0.888306 1.108758 -15.214531 14.148594 12.942524 6.961709 -36.748246 12.129031 -34.314059 -17.578059 8.890436 -7.356560 0.000000 0.000000 0.000000 21.592302 31.751648 -3.216748 12.485005 -20.527964 2.269582 46.870183 -3.403701 -27.115354 0.000000 0.000000 0.000000 -7.125000 0.000000 0.000000 23.277498 65.385888 -11.755230 0.000000 0.000000 0.000000 -15.442047 26.257163 -27.356527 -6.098029 -10.425577 -0.556846 -41.427858 19.918893 -7.632344 0.000000 0.000000 0.000000 7.125000 0.000000 0.000000 -10.419714 19.927081 -6.349564
24.469449 17.336990 -3.189701 -1.645006 -38.439966 55.614820 0.000000 0.000000 0.000000 23.619740 -17.698899 -70.222348 0.723092 5.433648 15.149723 -0.396500 16.104782 -18.383146 1.640299 -8.072499 -22.934668 0.000000 0.000000 0.000000 -30.162265 25.960196 -73.422915 -3.150781 -10.935139 32.061552 -0.081621 -10.210728 -15.775168 -0.371388 3.898427 -10.792807 -0.165898 1.796900 35.045854 -0.489310 1.972283 2.293795 -1.291134 0.777552 -15.343467 13.010701 13.079910 6.281761 -37.624597 11.962661 -33.822378 -17.634270 8.984031 -7.133949 0.000000 0.000000 0.000000 21.782529 33.272648 -2.159277 12.088351 -19.936062 2.132937 46.935274 -3.414537 -27.160016 0.000000 0.000000 0.000000 -7.125000 0.000000 0.000000 23.402372 65.458631 -11.860510 0.000000 0.000000 0.000000 -15.595472 25.254267 -21.102182 -6.234341 -10.652436 -0.581797 -40.412000 14.939974 -7.723460 0.000000 0.000000 0.000000 7.125000 0.000000 0.000000 -9.697590 19.949963 -5.890960
24.732828 17.267784 -3.040331 2.698809 -40.433976 52.825770 0.000000 0.000000 0.000000 17.352712 -19.044646 -73.943826 1.131474 6.755740 18.993809 0.076937 9.784201 -15.158815 2.707972 -10.206191 -29.647561 0.000000 0.000000 0.000000 -31.574390 22.686832 -74.004508 -3.699799 -11.749657 34.852214 0.433164 -14.777029 -15.268108 -1.092716 6.643040 -18.662005 2.823463 0.705736 35.837443 -0.933784 1.693049 2.128315 -3.283609 0.440128 -15.774586 14.046438 12.757620 5.435634 -39.283027 11.647778 -31.987134 -18.196365 8.766479 -6.119262 0.000000 0.000000 0.000000 23.346784 33.830150 -1.184499 12.154241 -20.035497 2.154815 47.449603 -3.958615 -26.625778 0.000000 0.000000 0.000000 -7.125000 0.000000 0.000000 24.073335 64.991393 -11.959951 0.000000 0.000000 0.000000 -13.003617 24.895253 -22.625605 -6.879701 -11.721014 -0.707047 -39.282527 15.153377 -8.527603 0.000000 0.000000 0.000000 7.125000 0.000000 0.000000 -8.785332 19.085183 -5.494484
24.891487 17.147324 -2.883860 5.390448 -44.013149 50.597581 0.000000 0.000000 0.000000 11.984592 -19.052575 -76.758376 1.783431 8.399185 23.933357 0.234108 5.159370 -12.501118 3.132430 -10.891249 -31.930355 0.000000 0.000000 0.000000 -33.452935 21.203470 -75.702981 -4.334573 -12.592586 37.862143 0.423929 -15.286720 -16.440018 -0.860332 5.901676 -16.503068 3.364373 0.742021 36.371513 -1.115052 1.917801 2.259844 -3.877676 0.488736 -15.791213 13.649052 12.827627 4.419668 -40.074414 11.628637 -31.247557 -18.228841 8.764650 -5.624558 0.000000 0.000000 0.000000 20.730682 34.273254 4.244164 14.463727 -23.393402 3.009996 47.621238 -9.315787 -26.995229 0.000000 0.000000 0.000000 -7.125000 0.000000 0.000000 24.505842 65.479926 -12.461629 0.000000 0.000000 0.000000 -11.821482 23.947094 -20.161733 -7.243009 -12.318335 -0.782823 -37.753007 9.546876 -12.848121 0.000000 0.000000 0.000000 7.125000 0.000000 0.000000 -7.078077 13.976137 -5.199314
25.061142 16.974311 -2.700509 9.546167 -46.784888 46.693612 0.000000 0.000000 0.000000 10.418912 -21.877208 -78.328748 2.418709 9.688300 27.973402 0.095038 4.697775 -9.364116 2.505883 -9.848514 -28.487674 0.000000 0.000000 0.000000 -35.925215 19.093701 -76.166296 -5.001895 -13.385988 40.831066 0.239836 -14.737919 -18.085630 -0.894805 6.029153 -16.868958 4.650695 -0.639671 36.420262 -1.713350 0.594373 2.304509 -4.641369 -0.174670 -15.844029 13.101017 12.722916 4.979477 -39.567963 11.489852 -31.077958 -17.958281 8.689951 -5.864357 0.000000 0.000000 0.000000 15.338537 34.187235 7.609895 15.946000 -25.447323 3.622713 48.200197 -11.951769 -26.341070 0.000000 0.000000 0.000000 -7.125000 0.000000 0.000000 25.222265 64.890546 -12.504921 0.000000 0.000000 0.000000 -11.849887 23.676295 -12.816673 -8.122686 -13.751483 -0.981097 -33.868830 3.221604 -12.782340 0.000000 0.000000 0.000000 7.125000 0.000000 0.000000 -4.483712 14.730604 -3.206021
25.083404 16.821962 -2.587010 8.697666 -49.198828 46.305272 0.000000 0.000000 0.000000 10.404304 -21.193139 -80.416285 3.671895 11.709927 34.714143 0.178796 5.423339 -11.787555 3.132477 -10.906098 -31.964247 0.000000 0.000000 0.000000 -35.397459 19.589518 -77.019857 -5.230193 -13.638346 41.807817 0.068965 -13.905154 -18.945444 -1.326609 7.291379 -20.582664 4.810481 -0.538370 36.583025 -1.248297 0.885806 1.848771 -4.354820 -0.077570 -16.421305 13.382607 11.746934 4.127815 -37.214062 10.373879 -30.383356 -16.868384 7.650235 -6.078876 0.000000 0.000000 0.000000 8.986304 33.362380 6.015886 16.291843 -25.914712 3.772628 45.460793 -14.310048 -26.793522 0.000000 0.000000 0.000000 -7.125000 0.000000 0.000000 20.875682 64.570121 -10.097123 0.000000 0.000000 0.000000 -10.358124 22.942424 -12.119106 -9.020342 -15.192781 -1.205506 -30.954923 -0.144717 -16.689754 0.000000 0.000000 0.000000 7.125000 0.000000 0.000000 -2.052270 10.720487 -1.633439
25.030117 16.674923 -2.491704 8.038291 -50.675387 46.362785 0.000000 0.000000 0.000000 10.117463 -20.337359 -82.141135 4.765474 13.114495 39.798935 0.343035 5.367090 -14.343959 3.262416 -11.106010 -32.640734 0.000000 0.000000 0.000000 -34.170553 19.261893 -77.622670 -5.401138 -13.821760 42.528012 -0.270012 -12.080330 -20.380586 -1.712429 8.239425 -23.443712 4.843700 -0.686877 35.683279 -0.927248 0.787453 0.729224 -3.997872 -0.154488 -17.432872 13.134155 9.565609 2.272011 -31.409857 8.096676 -28.348535 -14.045745 5.631618 -6.332687 0.000000 0.000000 0.000000 3.739442 32.206014 1.822977 16.164056 -25.742579 3.716898 35.170512 -18.881312 -27.627176 0.000000 0.000000 0.000000 -7.125000 0.000000 0.000000 6.112326 62.510711 -2.613401 0.000000 0.000000 0.000000 -8.303044 23.275334 -11.017854 -9.895116 -16.575306 -1.444872 -23.322364 -2.789987 -23.265673 0.000000 0.000000 0.000000 7.125000 0.000000 0.000000 3.586319 4.931905 3.272876
